<?xml version="1.0" encoding="iso-8859-1"?>
<!-- Generator: Adobe Illustrator 19.0.0, SVG Export Plug-In . SVG Version: 6.00 Build 0)  -->
<svg version="1.1" id="Layer_1" xmlns="http://www.w3.org/2000/svg" xmlns:xlink="http://www.w3.org/1999/xlink" x="0px" y="0px"
	 viewBox="0 0 512 512" style="enable-background:new 0 0 512 512;" xml:space="preserve">
<path style="fill:#FFCA66;" d="M350.995,106.744H34.902c-14.544,0-26.335,11.79-26.335,26.335v316.093
	c0,14.543,11.79,26.333,26.335,26.333h316.093c14.544,0,26.335-11.79,26.335-26.335V133.078
	C377.328,118.534,365.539,106.744,350.995,106.744z"/>
<path style="opacity:0.15;fill:#333333;enable-background:new    ;" d="M350.995,106.744H34.902c-1.905,0-3.763,0.207-5.554,0.592
	v306.711c0,27.125,22.069,49.195,49.194,49.195H373.25c2.58-4.072,4.078-8.894,4.078-14.071V133.078
	C377.328,118.534,365.539,106.744,350.995,106.744z"/>
<path style="fill:#FFDC99;" d="M394.635,71.619H78.543c-14.544,0-26.335,11.79-26.335,26.335v316.093
	c0,14.544,11.79,26.335,26.335,26.335h316.092c14.544,0,26.335-11.79,26.335-26.335V97.954
	C420.969,83.41,409.179,71.619,394.635,71.619z"/>
<path style="opacity:0.15;fill:#333333;enable-background:new    ;" d="M394.635,71.619H78.543c-1.905,0-3.763,0.207-5.554,0.592
	v306.71c0,27.125,22.069,49.195,49.194,49.195h294.708c2.58-4.072,4.078-8.894,4.078-14.071V97.954
	C420.969,83.41,409.179,71.619,394.635,71.619z"/>
<path style="fill:#FFEECC;" d="M438.276,36.495H122.183c-14.544,0-26.335,11.79-26.335,26.335v316.093
	c0,14.544,11.79,26.335,26.335,26.335h316.093c14.544,0,26.335-11.79,26.335-26.335V62.829
	C464.611,48.285,452.82,36.495,438.276,36.495z"/>
<polygon style="fill:#85A1A6;" points="316.93,219.079 396.505,173.381 411.596,199.66 316.93,254.026 "/>
<ellipse transform="matrix(0.8672 -0.498 0.498 0.8672 -49.9735 215.1616)" style="fill:#FF99AA;" cx="378.381" cy="201.267" rx="24.992" ry="65.578"/>
<path style="fill:#D9576D;" d="M453.201,105.151l-83.014,47.675c-8.144,4.677-4.472,26.361,8.204,48.431
	c12.675,22.071,29.552,36.17,37.696,31.493l83.014-47.675L453.201,105.151z"/>
<path style="fill:#FFCA66;" d="M316.93,287.053c-4.736,0-8.573-3.838-8.573-8.573v-94.629c0-4.734,3.837-8.573,8.573-8.573
	s8.573,3.838,8.573,8.573v94.629C325.503,283.214,321.665,287.053,316.93,287.053z"/>
<ellipse transform="matrix(0.8672 -0.498 0.498 0.8672 -9.0298 256.3879)" style="fill:#FF99AA;" cx="476.14" cy="145.122" rx="17.005" ry="46.088"/>
<path style="fill:#26150C;" d="M511.264,165.952c-1.715-10.12-6.305-22.045-12.928-33.576
	c-6.251-10.884-15.396-22.935-25.148-30.157V62.83c0-19.248-15.659-34.907-34.907-34.907H122.189
	c-19.248,0-34.907,15.66-34.907,34.907v0.217h-8.734c-19.248,0-34.907,15.659-34.907,34.906v0.217h-8.734
	C15.66,98.171,0,113.83,0,133.078V449.17c0,19.248,15.66,34.907,34.907,34.907H351c19.248,0,34.907-15.66,34.907-34.907v-0.216
	h8.734c19.248,0,34.907-15.66,34.907-34.907v-0.217h8.734c19.248,0,34.907-15.659,34.907-34.906V209.847l30.183-17.334
	c0.001,0,0.002-0.001,0.003-0.001C507.591,190.09,514.222,183.419,511.264,165.952z M368.761,449.17
	c0,9.794-7.968,17.762-17.762,17.762H34.907c-9.794,0-17.762-7.967-17.762-17.762V133.078c0-9.794,7.968-17.762,17.762-17.762h8.734
	v298.73c0,19.248,15.66,34.907,34.907,34.907h290.213v0.216H368.761z M412.402,414.047c0,9.794-7.968,17.762-17.762,17.762h-17.307
	H78.549c-9.794,0-17.762-7.968-17.762-17.762V106.744v-8.79c0-9.792,7.968-17.761,17.762-17.761h8.734v298.73
	c0,19.248,15.66,34.906,34.907,34.906h290.213v0.217H412.402z M456.044,378.922c0,9.792-7.968,17.761-17.762,17.761h-17.307H122.189
	c-7.345,0-13.663-4.482-16.363-10.854c-0.225-0.532-0.425-1.076-0.598-1.631c-0.346-1.111-0.586-2.27-0.708-3.462
	c-0.061-0.597-0.091-1.201-0.091-1.813V71.62v-8.79c0-9.794,7.968-17.762,17.762-17.762h316.093c9.794,0,17.762,7.968,17.762,17.762
	v32.872c-0.243,0.01-0.477,0.05-0.718,0.071c-6.427,0.545-12.581,5.503-18.007,8.619c-6.502,3.734-13.004,7.469-19.506,11.203
	c-13.004,7.469-26.009,14.936-39.013,22.405c-1.884,1.081-3.767,2.164-5.651,3.245c-0.508,0.291-1.015,0.583-1.523,0.874
	c-0.035,0.021-0.07,0.04-0.105,0.061c-7.327-5.123-14.166-7.72-20.38-7.72c-3.537,0-6.792,0.839-9.676,2.496
	c-14.951,8.587-12.95,33.775-2.581,59.636l-13.377,7.682v-20.419c0-4.736-3.838-8.573-8.573-8.573c-4.734,0-8.573,3.837-8.573,8.573
	v94.629c0,4.736,3.838,8.573,8.573,8.573c4.734,0,8.573-3.837,8.573-8.573v-19.491l37.035-21.269
	c13.195,16.933,29.191,30.339,43.103,30.339c3.538,0,6.794-0.84,9.679-2.498c10.123-5.815,11.377-18.693,10.618-28.583
	l30.101-17.287V378.922z M350.005,151.822c0.253-0.145,0.634-0.218,1.136-0.218c0.852,0,3.356,0.259,7.619,2.738
	c-0.016,0.047-0.025,0.095-0.041,0.143c-3.683,10.82,0.006,23.658,4.002,33.865c4.749,12.136,11.368,23.537,19.549,33.681
	c6.539,8.108,15.196,17.07,25.681,19.617c0.222,0.054,0.442,0.102,0.664,0.147c0.133,0.027,0.265,0.063,0.398,0.088
	c-0.019,5.551-1.319,8.293-2.227,8.814c-0.254,0.146-0.638,0.219-1.141,0.219c-5.984,0-19.716-9.302-33.587-29.039
	c-0.062-0.096-0.115-0.197-0.182-0.29c-2.005-2.86-3.937-5.828-5.772-8.855c-0.056-0.093-0.112-0.182-0.167-0.274
	c-0.567-0.938-1.122-1.884-1.669-2.832c-0.037-0.064-0.074-0.125-0.111-0.189c-0.062-0.107-0.118-0.211-0.178-0.319
	c-2.327-4.074-4.49-8.268-6.426-12.474c-0.041-0.089-0.093-0.173-0.137-0.261C345.851,171.2,346.457,153.859,350.005,151.822z
	 M352.67,223.617l-27.162,15.599v-15.174l20.609-11.835c0.051,0.098,0.109,0.194,0.161,0.294c0.972,1.839,1.973,3.667,3.01,5.473
	c1,1.742,2.047,3.484,3.127,5.219C352.503,223.333,352.582,223.478,352.67,223.617z M460.347,197.45c0,0-47.855,27.483-47.86,27.487
	l-0.215,0.123c-0.081-0.009-0.171-0.027-0.263-0.046c-0.03-0.006-0.055-0.008-0.086-0.015c-0.071-0.016-0.15-0.04-0.226-0.061
	c-0.057-0.016-0.11-0.027-0.169-0.046c-0.101-0.031-0.21-0.071-0.319-0.111c-0.042-0.015-0.08-0.026-0.123-0.042
	c-0.085-0.032-0.177-0.073-0.266-0.11c-0.073-0.031-0.143-0.057-0.218-0.09c-0.021-0.009-0.045-0.022-0.065-0.031
	c-0.832-0.375-1.828-0.938-2.96-1.708c-0.022-0.015-0.045-0.032-0.066-0.047c-1.378-0.942-2.954-2.181-4.672-3.743
	c-0.023-0.021-0.046-0.043-0.069-0.064c-8.405-7.679-14.788-17.322-19.895-27.431c-4.09-8.095-7.833-17.148-8.422-26.315
	c-0.075-1.168-0.101-2.349,0.04-3.514c0.087-0.725,0.229-1.287,0.41-1.679l65.88-37.835c0.008,0.056,0.018,0.114,0.026,0.171
	c1.712,12.757,6.583,24.981,13.136,36.002c6.231,10.479,14.203,21.043,23.837,28.633c0.111,0.087,0.219,0.182,0.33,0.267
	C478.11,187.249,460.359,197.444,460.347,197.45z M494.596,177.234c-0.227-0.067-0.48-0.162-0.749-0.273
	c-0.043-0.018-0.085-0.033-0.128-0.053c-5.084-2.204-9.428-7.178-13.118-11.241c-4.128-4.546-7.801-9.502-10.963-14.766
	c-3.593-5.982-6.523-12.361-8.707-18.987c-1.809-5.493-4.178-12.192-3.413-18.009c0.005-0.032,0.009-0.061,0.014-0.091
	c0.041-0.293,0.091-0.559,0.15-0.793c0.588,0.178,1.461,0.526,2.672,1.221c5.205,3.072,14.329,11.38,23.112,26.674
	C494.126,159.473,495.688,173.105,494.596,177.234z"/>
<g>
</g>
<g>
</g>
<g>
</g>
<g>
</g>
<g>
</g>
<g>
</g>
<g>
</g>
<g>
</g>
<g>
</g>
<g>
</g>
<g>
</g>
<g>
</g>
<g>
</g>
<g>
</g>
<g>
</g>
</svg>
